<svg width="24" height="24" viewBox="0 0 24 24" fill="none" xmlns="http://www.w3.org/2000/svg">
<path d="M11 2.05001V4.06201C9.77904 4.21623 8.61013 4.65005 7.58419 5.32974C6.55825 6.00942 5.70295 6.91663 5.08483 7.98079C4.4667 9.04495 4.10243 10.2374 4.02033 11.4653C3.93824 12.6932 4.14054 13.9235 4.6115 15.0605C5.08247 16.1975 5.80939 17.2104 6.73572 18.0206C7.66205 18.8308 8.76281 19.4164 9.95237 19.7318C11.1419 20.0472 12.3882 20.0839 13.5943 19.839C14.8003 19.5941 15.9336 19.0743 16.906 18.32L18.329 19.743C17.1212 20.73 15.6994 21.4208 14.177 21.7602C12.6546 22.0996 11.0739 22.0781 9.56132 21.6976C8.04871 21.317 6.64608 20.5879 5.46554 19.5686C4.285 18.5492 3.35928 17.2678 2.76236 15.8268C2.16545 14.3857 1.9139 12.8251 2.0278 11.2695C2.14171 9.7139 2.61792 8.20653 3.41837 6.86784C4.21883 5.52915 5.32133 4.39626 6.63777 3.55971C7.95421 2.72316 9.44808 2.20616 11 2.05001ZM21.95 13C21.7565 14.955 20.9886 16.8089 19.743 18.328L18.32 16.906C19.2015 15.7736 19.7605 14.424 19.938 13H21.951H21.95ZM13 2.05001C15.2955 2.28023 17.4409 3.29708 19.0724 4.92824C20.7039 6.5594 21.7213 8.70451 21.952 11H19.939C19.717 9.23721 18.9145 7.59846 17.6581 6.34221C16.4017 5.08597 14.7628 4.28373 13 4.06201V2.04901V2.05001Z" fill="#0F1C35"/>
</svg>
