<svg width="24" height="24" viewBox="0 0 24 24" fill="none" xmlns="http://www.w3.org/2000/svg">
<path d="M4.5 4.5C3.26625 4.5 2.25 5.51625 2.25 6.75V11.8358C1.7925 12.249 1.5 12.8407 1.5 13.5V20.25H5.25V18.75H18.75V20.25H22.5V13.5C22.5 12.8407 22.2075 12.249 21.75 11.8358V6.75C21.75 5.51625 20.7337 4.5 19.5 4.5H4.5ZM4.5 6H19.5C19.9163 6 20.25 6.33375 20.25 6.75V11.25H18.75V10.5C18.75 9.26625 17.7337 8.25 16.5 8.25H13.5C12.9255 8.25 12.3982 8.475 12 8.83575C11.59 8.46115 11.0554 8.25237 10.5 8.25H7.5C6.26625 8.25 5.25 9.26625 5.25 10.5V11.25H3.75V6.75C3.75 6.33375 4.08375 6 4.5 6ZM7.5 9.75H10.5C10.9163 9.75 11.25 10.0837 11.25 10.5V11.25H6.75V10.5C6.75 10.0837 7.08375 9.75 7.5 9.75ZM13.5 9.75H16.5C16.9163 9.75 17.25 10.0837 17.25 10.5V11.25H12.75V10.5C12.75 10.0837 13.0837 9.75 13.5 9.75ZM3.75 12.75H20.25C20.6663 12.75 21 13.0837 21 13.5V18.75H20.25V17.25H3.75V18.75H3V13.5C3 13.0837 3.33375 12.75 3.75 12.75Z" fill="#0F1C35"/>
</svg>
