<svg width="24" height="24" viewBox="0 0 24 24" fill="none" xmlns="http://www.w3.org/2000/svg">
<path d="M12 2C13.9778 2 15.9112 2.58649 17.5557 3.68531C19.2002 4.78412 20.4819 6.34591 21.2388 8.17317C21.9957 10.0004 22.1937 12.0111 21.8079 13.9509C21.422 15.8907 20.4696 17.6725 19.0711 19.0711C17.6725 20.4696 15.8907 21.422 13.9509 21.8079C12.0111 22.1937 10.0004 21.9957 8.17317 21.2388C6.3459 20.4819 4.78412 19.2002 3.6853 17.5557C2.58649 15.9112 2 13.9778 2 12H4C4.00022 13.9155 4.6877 15.7673 5.93749 17.2189C7.18727 18.6704 8.9164 19.6254 10.8106 19.9102C12.7048 20.195 14.6382 19.7907 16.2596 18.7708C17.881 17.7509 19.0826 16.1831 19.646 14.3524C20.2095 12.5217 20.0974 10.5495 19.3301 8.79446C18.5628 7.03939 17.1913 5.61788 15.4648 4.7883C13.7382 3.95872 11.7714 3.77615 9.9217 4.27377C8.07199 4.77138 6.46223 5.91615 5.385 7.5H8V9.5H2V3.5H4V6C4.93044 4.75695 6.13807 3.74812 7.52686 3.05372C8.91565 2.35933 10.4473 1.99853 12 2ZM13 7V11.585L16.243 14.828L14.828 16.243L11 12.413V7H13Z" fill="#0F1C35"/>
</svg>
