<svg width="24" height="24" viewBox="0 0 24 24" fill="none" xmlns="http://www.w3.org/2000/svg">
<path d="M21.75 9H19.5C19.5 8.80109 19.421 8.61032 19.2803 8.46967C19.1397 8.32902 18.9489 8.25 18.75 8.25H12.75C12.5511 8.25 12.3603 8.32902 12.2197 8.46967C12.079 8.61032 12 8.80109 12 9H6V4.875C6 4.57663 6.11853 4.29048 6.3295 4.0795C6.54048 3.86853 6.82663 3.75 7.125 3.75C7.42337 3.75 7.70952 3.86853 7.9205 4.0795C8.13147 4.29048 8.25 4.57663 8.25 4.875C8.25 5.07391 8.32902 5.26468 8.46967 5.40533C8.61032 5.54598 8.80109 5.625 9 5.625C9.19891 5.625 9.38968 5.54598 9.53033 5.40533C9.67098 5.26468 9.75 5.07391 9.75 4.875C9.75 4.17881 9.47344 3.51113 8.98116 3.01884C8.48887 2.52656 7.82119 2.25 7.125 2.25C6.42881 2.25 5.76113 2.52656 5.26884 3.01884C4.77656 3.51113 4.5 4.17881 4.5 4.875V9H2.25C1.85218 9 1.47064 9.15804 1.18934 9.43934C0.908035 9.72064 0.75 10.1022 0.75 10.5V13.5C0.75 14.8924 1.30312 16.2277 2.28769 17.2123C3.27226 18.1969 4.60761 18.75 6 18.75V20.25C6 20.4489 6.07902 20.6397 6.21967 20.7803C6.36032 20.921 6.55109 21 6.75 21C6.94891 21 7.13968 20.921 7.28033 20.7803C7.42098 20.6397 7.5 20.4489 7.5 20.25V18.75H16.5V20.25C16.5 20.4489 16.579 20.6397 16.7197 20.7803C16.8603 20.921 17.0511 21 17.25 21C17.4489 21 17.6397 20.921 17.7803 20.7803C17.921 20.6397 18 20.4489 18 20.25V18.75C19.3924 18.75 20.7277 18.1969 21.7123 17.2123C22.6969 16.2277 23.25 14.8924 23.25 13.5V10.5C23.25 10.1022 23.092 9.72064 22.8107 9.43934C22.5294 9.15804 22.1478 9 21.75 9ZM18 9.75V12.75H13.5V9.75H18ZM21.75 13.5C21.75 13.9925 21.653 14.4801 21.4645 14.9351C21.2761 15.39 20.9999 15.8034 20.6516 16.1517C20.3034 16.4999 19.89 16.7761 19.4351 16.9645C18.9801 17.153 18.4925 17.25 18 17.25H6C5.00544 17.25 4.05161 16.8549 3.34835 16.1517C2.64509 15.4484 2.25 14.4946 2.25 13.5V10.5H12V13.5C12 13.6989 12.079 13.8897 12.2197 14.0303C12.3603 14.171 12.5511 14.25 12.75 14.25H18.75C18.9489 14.25 19.1397 14.171 19.2803 14.0303C19.421 13.8897 19.5 13.6989 19.5 13.5V10.5H21.75V13.5Z" fill="#0F1C35"/>
</svg>
